<?xml version="1.0" encoding="iso-8859-1" standalone="no"?> 
<?xml-stylesheet href="restful_groupware.css" type="text/css"?> 
<svg xmlns="http://www.w3.org/2000/svg" xmlns:xlink="http://www.w3.org/1999/xlink" width="335.57564pt" height="225.13239pt" viewBox="-166.97691 -216.9162 335.57564 225.13239 "> 
<g transform="translate(0, 8.21619 ) scale(1,-1) translate(0,216.9162 )"> 
                                           <g> 
 <g stroke="rgb(0.0%,0.0%,0.0%)"> 
 <g fill="rgb(0.0%,0.0%,0.0%)"> 
 <g stroke-width="0.4pt"> 
 <g> 
 </g> 
 <g> 
 <g> 
 <g stroke="rgb(69.9997%,69.9997%,100.0%)"> 
 <g fill="rgb(80.0003%,80.0003%,100.0%)"> 
 <g> 
 <g stroke="rgb(69.9997%,69.9997%,100.0%)"> 
 <g fill="rgb(80.0003%,80.0003%,100.0%)"> 
 <path d=" M  -32.2291 -8.01619 h  64.45819 v  16.03238 h  -64.45819 Z  " /> 
 </g> 
 </g> 
 </g> 
 <g> 
 <g transform="matrix(1.0,0.0,0.0,1.0,-28.3129,-4.09999)"> 
 <g fill="rgb(0.0%,0.0%,0.0%)"> 
 <text style="stroke:none" transform="scale(1,-1) translate(28.3129,0)" text-anchor="middle"  font-size="12"> 
ServiceDoc</text> 
</g> 
 </g> 
 </g> 
 </g> 
 </g> 
 </g> 
 <g> 
 <g stroke="rgb(69.9997%,69.9997%,100.0%)"> 
 <g fill="rgb(80.0003%,80.0003%,100.0%)"> 
 <g> 
 <g stroke="rgb(69.9997%,69.9997%,100.0%)"> 
 <g fill="rgb(80.0003%,80.0003%,100.0%)"> 
 <path d=" M  -33.2909 -109.44783 h  66.58179 v  30.53238 h  -66.58179 Z  " /> 
 </g> 
 </g> 
 </g> 
 <g> 
 <g transform="matrix(1.0,0.0,0.0,1.0,-29.3747,-105.53163)"> 
 <g fill="rgb(0.0%,0.0%,0.0%)"> 
 <text style="stroke:none" transform="scale(1,-1) translate(29.3747,0)" text-anchor="middle"  font-size="12"> 
Contacts
Collection</text> 
</g> 
 </g> 
 </g> 
 </g> 
 </g> 
 </g> 
 <g> 
 <path d=" M  0.0 -78.25546 L  0.0 -8.21619  " style="fill:none"/> 
 <g> 
 <g transform="matrix(0.0,-1.0,1.0,0.0,0.0,-78.25546)"> 
 <g> 
 <g stroke-width="0.31999pt"> 
 <g stroke-dasharray="none" stroke-dashoffset="0.0pt"> 
 <g stroke-linecap="round"> 
 <g stroke-linejoin="round"> 
 <path d=" M  -1.19998 1.59998 C  -1.09998 0.99998 0.0 0.09999 0.29999 0.0 C  0.0 -0.09999 -1.09998 -0.99998 -1.19998 -1.59998  " style="fill:none"/> 
 </g> 
 </g> 
 </g> 
 </g> 
 </g> 
 </g> 
 </g> 
 <g> 
 <g> 
 <g transform="matrix(1.0,0.0,0.0,1.0,0.0,-43.46582)"> 
 <g fill="rgb(0.0%,0.0%,0.0%)"> 
 <text style="stroke:none" transform="scale(1,-1) translate(0.0,0)" text-anchor="middle"  font-size="12"> 
</text> 
</g> 
 </g> 
 </g> 
 </g> 
 </g> 
 <g> 
 <path d=" M  -33.49089 -103.15227 C  -87.58032 -117.64958 -87.58032 -70.7137 -34.90388 -84.82832  " style="fill:none"/> 
 <g> 
 <g transform="matrix(0.96782,-0.25932,0.25932,0.96782,-34.90388,-84.82832)"> 
 <g> 
 <g stroke-width="0.31999pt"> 
 <g stroke-dasharray="none" stroke-dashoffset="0.0pt"> 
 <g stroke-linecap="round"> 
 <g stroke-linejoin="round"> 
 <path d=" M  -1.19998 1.59998 C  -1.09998 0.99998 0.0 0.09999 0.29999 0.0 C  0.0 -0.09999 -1.09998 -0.99998 -1.19998 -1.59998  " style="fill:none"/> 
 </g> 
 </g> 
 </g> 
 </g> 
 </g> 
 </g> 
 </g> 
 <g> 
 <g> 
 <g transform="matrix(1.0,0.0,0.0,1.0,-100.69475,-97.87158)"> 
 <g fill="rgb(0.0%,0.0%,0.0%)"> 
 <text style="stroke:none" transform="scale(1,-1) translate(11.2603,0)" text-anchor="middle"  font-size="12"> 
next</text> 
</g> 
 </g> 
 </g> 
 </g> 
 </g> 
 <g> 
 <g stroke="rgb(69.9997%,69.9997%,100.0%)"> 
 <g fill="rgb(80.0003%,80.0003%,100.0%)"> 
 <g> 
 <g stroke="rgb(69.9997%,69.9997%,100.0%)"> 
 <g fill="rgb(80.0003%,80.0003%,100.0%)"> 
 <path d=" M  82.47964 -88.93245 h  66.58179 v  30.66571 h  -66.58179 Z  " /> 
 </g> 
 </g> 
 </g> 
 <g> 
 <g transform="matrix(1.0,0.0,0.0,1.0,86.39584,-85.01625)"> 
 <g fill="rgb(0.0%,0.0%,0.0%)"> 
 <text style="stroke:none" transform="scale(1,-1) translate(29.3747,0)" text-anchor="middle"  font-size="12"> 
Calendar
Collection</text> 
</g> 
 </g> 
 </g> 
 </g> 
 </g> 
 </g> 
 <g> 
 <path d=" M  90.95532 -57.81935 L  12.91739 -8.21619  " style="fill:none"/> 
 <g> 
 <g transform="matrix(0.84608,-0.53783,0.53783,0.84608,90.95532,-57.81935)"> 
 <g> 
 <g stroke-width="0.31999pt"> 
 <g stroke-dasharray="none" stroke-dashoffset="0.0pt"> 
 <g stroke-linecap="round"> 
 <g stroke-linejoin="round"> 
 <path d=" M  -1.19998 1.59998 C  -1.09998 0.99998 0.0 0.09999 0.29999 0.0 C  0.0 -0.09999 -1.09998 -0.99998 -1.19998 -1.59998  " style="fill:none"/> 
 </g> 
 </g> 
 </g> 
 </g> 
 </g> 
 </g> 
 </g> 
 <g> 
 <g> 
 <g transform="matrix(1.0,0.0,0.0,1.0,52.13095,-33.14146)"> 
 <g fill="rgb(0.0%,0.0%,0.0%)"> 
 <text style="stroke:none" transform="scale(1,-1) translate(0.0,0)" text-anchor="middle"  font-size="12"> 
</text> 
</g> 
 </g> 
 </g> 
 </g> 
 </g> 
 <g> 
 <g stroke="rgb(69.9997%,69.9997%,100.0%)"> 
 <g fill="rgb(80.0003%,80.0003%,100.0%)"> 
 <g> 
 <g stroke="rgb(69.9997%,69.9997%,100.0%)"> 
 <g fill="rgb(80.0003%,80.0003%,100.0%)"> 
 <path d=" M  -41.0415 -200.17949 h  82.08301 v  19.8324 h  -82.08301 Z  " /> 
 </g> 
 </g> 
 </g> 
 <g> 
 <g transform="matrix(1.0,0.0,0.0,1.0,-37.1253,-193.26329)"> 
 <g fill="rgb(0.0%,0.0%,0.0%)"> 
 <text style="stroke:none" transform="scale(1,-1) translate(37.1253,0)" text-anchor="middle"  font-size="12"> 
Entry (xCard)</text> 
</g> 
 </g> 
 </g> 
 </g> 
 </g> 
 </g> 
 <g> 
 <path d=" M  0.0 -179.6871 L  0.0 -109.64783  " style="fill:none"/> 
 <g> 
 <g transform="matrix(0.0,-1.0,1.0,0.0,0.0,-179.6871)"> 
 <g> 
 <g stroke-width="0.31999pt"> 
 <g stroke-dasharray="none" stroke-dashoffset="0.0pt"> 
 <g stroke-linecap="round"> 
 <g stroke-linejoin="round"> 
 <path d=" M  -1.19998 1.59998 C  -1.09998 0.99998 0.0 0.09999 0.29999 0.0 C  0.0 -0.09999 -1.09998 -0.99998 -1.19998 -1.59998  " style="fill:none"/> 
 </g> 
 </g> 
 </g> 
 </g> 
 </g> 
 </g> 
 </g> 
 <g> 
 <g> 
 <g transform="matrix(1.0,0.0,0.0,1.0,-9.46518,-148.76411)"> 
 <g fill="rgb(0.0%,0.0%,0.0%)"> 
 <text style="stroke:none" transform="scale(1,-1) translate(9.46518,0)" text-anchor="middle"  font-size="12"> 
1..n</text> 
</g> 
 </g> 
 </g> 
 </g> 
 </g> 
 <g> 
 <path d=" M  10.04024 -180.1471 L  100.05283 -89.45934  " style="fill:none"/> 
 <g> 
 <g transform="matrix(0.70537,0.71065,-0.71065,0.70537,100.05283,-89.45934)"> 
 <g> 
 <g stroke-width="0.31999pt"> 
 <g stroke-dasharray="none" stroke-dashoffset="0.0pt"> 
 <g stroke-linecap="round"> 
 <g stroke-linejoin="round"> 
 <path d=" M  -1.19998 1.59998 C  -1.09998 0.99998 0.0 0.09999 0.29999 0.0 C  0.0 -0.09999 -1.09998 -0.99998 -1.19998 -1.59998  " style="fill:none"/> 
 </g> 
 </g> 
 </g> 
 </g> 
 </g> 
 </g> 
 </g> 
 <g> 
 <g> 
 <g transform="matrix(1.0,0.0,0.0,1.0,25.83406,-146.05643)"> 
 <g fill="rgb(0.0%,0.0%,0.0%)"> 
 <text style="stroke:none" transform="scale(1,-1) translate(29.3747,0)" text-anchor="middle"  font-size="12"> 
personal
calendar</text> 
</g> 
 </g> 
 </g> 
 </g> 
 </g> 
 <g> 
 <path d=" M  -37.74864 -200.37949 C  -98.72778 -216.7162 -98.72778 -163.81038 -39.17136 -179.76851  " style="fill:none"/> 
 <g> 
 <g transform="matrix(0.96782,-0.25931,0.25931,0.96782,-39.17136,-179.76851)"> 
 <g> 
 <g stroke-width="0.31999pt"> 
 <g stroke-dasharray="none" stroke-dashoffset="0.0pt"> 
 <g stroke-linecap="round"> 
 <g stroke-linejoin="round"> 
 <path d=" M  -1.19998 1.59998 C  -1.09998 0.99998 0.0 0.09999 0.29999 0.0 C  0.0 -0.09999 -1.09998 -0.99998 -1.19998 -1.59998  " style="fill:none"/> 
 </g> 
 </g> 
 </g> 
 </g> 
 </g> 
 </g> 
 </g> 
 <g> 
 <g> 
 <g transform="matrix(1.0,0.0,0.0,1.0,-163.06071,-194.42993)"> 
 <g fill="rgb(0.0%,0.0%,0.0%)"> 
 <text style="stroke:none" transform="scale(1,-1) translate(37.73016,0)" text-anchor="middle"  font-size="12"> 
related xCards</text> 
</g> 
 </g> 
 </g> 
 </g> 
 </g> 
 <g> 
 <g stroke="rgb(69.9997%,69.9997%,100.0%)"> 
 <g fill="rgb(80.0003%,80.0003%,100.0%)"> 
 <g> 
 <g stroke="rgb(69.9997%,69.9997%,100.0%)"> 
 <g fill="rgb(80.0003%,80.0003%,100.0%)"> 
 <path d=" M  63.14235 -179.66411 h  105.25638 v  19.8324 h  -105.25638 Z  " /> 
 </g> 
 </g> 
 </g> 
 <g> 
 <g transform="matrix(1.0,0.0,0.0,1.0,67.05855,-172.74791)"> 
 <g fill="rgb(0.0%,0.0%,0.0%)"> 
 <text style="stroke:none" transform="scale(1,-1) translate(48.71199,0)" text-anchor="middle"  font-size="12"> 
Entry (xCal event)</text> 
</g> 
 </g> 
 </g> 
 </g> 
 </g> 
 </g> 
 <g> 
 <path d=" M  115.77054 -159.17172 L  115.77054 -89.13245  " style="fill:none"/> 
 <g> 
 <g transform="matrix(0.0,-1.0,1.0,0.0,115.77054,-159.17172)"> 
 <g> 
 <g stroke-width="0.31999pt"> 
 <g stroke-dasharray="none" stroke-dashoffset="0.0pt"> 
 <g stroke-linecap="round"> 
 <g stroke-linejoin="round"> 
 <path d=" M  -1.19998 1.59998 C  -1.09998 0.99998 0.0 0.09999 0.29999 0.0 C  0.0 -0.09999 -1.09998 -0.99998 -1.19998 -1.59998  " style="fill:none"/> 
 </g> 
 </g> 
 </g> 
 </g> 
 </g> 
 </g> 
 </g> 
 <g> 
 <g> 
 <g transform="matrix(1.0,0.0,0.0,1.0,106.30536,-128.24873)"> 
 <g fill="rgb(0.0%,0.0%,0.0%)"> 
 <text style="stroke:none" transform="scale(1,-1) translate(9.46518,0)" text-anchor="middle"  font-size="12"> 
1..n</text> 
</g> 
 </g> 
 </g> 
 </g> 
 </g> 
 <g> 
 <path d=" M  62.94235 -179.10666 L  41.69498 -182.87611  " style="fill:none"/> 
 <g> 
 <g transform="matrix(-0.98586,-0.17488,0.17488,-0.98586,41.69498,-182.87611)"> 
 <g> 
 <g stroke-width="0.31999pt"> 
 <g stroke-dasharray="none" stroke-dashoffset="0.0pt"> 
 <g stroke-linecap="round"> 
 <g stroke-linejoin="round"> 
 <path d=" M  -1.19998 1.59998 C  -1.09998 0.99998 0.0 0.09999 0.29999 0.0 C  0.0 -0.09999 -1.09998 -0.99998 -1.19998 -1.59998  " style="fill:none"/> 
 </g> 
 </g> 
 </g> 
 </g> 
 </g> 
 </g> 
 </g> 
 <g> 
 <g> 
 <g transform="matrix(1.0,0.0,0.0,1.0,56.20813,-193.11209)"> 
 <g fill="rgb(0.0%,0.0%,0.0%)"> 
 <text style="stroke:none" transform="scale(1,-1) translate(30.54968,0)" text-anchor="middle"  font-size="12"> 
participants</text> 
</g> 
 </g> 
 </g> 
 </g> 
 </g> 
 </g> 
 </g> 
 </g> 
 </g> 
 </g> 
 
                                                                                      </g> 
</svg> 
